<svg width="442" height="142" viewBox="0 0 442 142" fill="none" xmlns="http://www.w3.org/2000/svg">
<path d="M160.248 142.007C71.7456 142.007 9.15527e-05 92.7122 9.15527e-05 31.9039C9.15527e-05 20.8123 2.38715 10.1036 6.82758 0.00737226L169 0.00732422L313.669 0.00737226C318.109 10.1036 320.496 20.8123 320.496 31.9039C320.496 92.7122 248.751 142.007 160.248 142.007Z" fill="#EFD134" fill-opacity="0.9"/>
<path d="M336 0.000847271C384 0.000845581 383 -0.00105977 393.5 0.000849561C430 0.00748902 417 0.000834772 441.779 0.00746439C437.502 20.6152 423.922 36.756 401.758 43.903C362.83 56.4562 309.758 37.2861 272.5 0.000859901C280.5 0.000896061 305.5 0.00747154 297 0.000820921C312 0.00746803 325 0.00749974 336 0.000847271Z" fill="#044A93" fill-opacity="0.7"/>
</svg>
