<svg width="90" height="66" viewBox="0 0 90 66" fill="none" xmlns="http://www.w3.org/2000/svg">  <g clip-path="url(#clip0_1_817)">    <path d="M88.981 29.9699C86.4309 29.9082 82.714 29.8948 78.2127 30.1578C73.6426 30.4262 71.3206 30.5738 69.657 31.2957C64.9324 33.3355 64.3192 36.9318 59.4829 41.1777C57.4034 43.0027 54.0168 45.3993 48.8548 46.9238L45.9245 49.7257" stroke="#292929" stroke-width="7" stroke-miterlimit="10"/>    <path d="M49.0236 10.8341L50.5992 10.3886C52.5879 9.82823 54.6289 9.53989 56.6785 9.5298C58.5876 9.5211 60.4908 9.29178 62.3585 8.84542C62.9052 8.71391 63.428 8.57703 63.9318 8.416C67.587 7.2856 71.3258 6.5337 75.1018 6.16962C76.7796 6.00859 78.5122 5.79567 80.2994 5.53087C83.2225 5.08803 85.9675 4.53516 88.5199 3.92056" stroke="#292929" stroke-width="7" stroke-miterlimit="10"/>    <path d="M65.7143 34.9887L68.6493 36.7896C69.603 37.295 70.3943 38.1221 70.9142 39.1567C71.3468 40.0424 72.1643 42.3237 71.1661 43.3248C70.4532 44.044 68.9797 43.9206 67.7272 42.8524L62.4441 39.9914L72.0051 45.6919C74.3389 46.7145 75.2158 49.1809 74.7001 50.3698C74.1844 51.5588 71.967 52.2915 69.8258 50.9066C65.3388 48.62 60.9469 46.277 56.4599 43.9823C56.427 43.9655 56.3904 43.9606 56.355 43.9684C56.3196 43.9762 56.2873 43.9963 56.2624 44.0258C56.2376 44.0553 56.2215 44.0928 56.2165 44.1331C56.2114 44.1734 56.2175 44.2145 56.2341 44.2507C56.5098 44.8519 57.2037 45.08 57.9143 45.5523C59.8679 46.854 60.443 47.6189 61.5648 48.2523C62.9551 49.0387 64.7494 50.3484 67.2828 51.7574C69.1437 52.474 69.84 54.7767 69.1674 56.1804C68.5424 57.4901 66.6744 58.1315 65.1272 57.0634L47.8471 47.9651" stroke="#292929" stroke-width="7" stroke-miterlimit="10"/>    <path d="M2.19066 8.08856L10.6893 11.8755L21.5384 12.5089C24.1811 11.2072 26.2916 10.0397 27.689 9.22383C32.1665 6.63929 33.3761 5.49597 35.8525 5.43424C36.6035 5.41814 37.8821 5.67579 40.4393 6.19377C42.6092 6.63123 44.3821 7.06602 45.5846 7.37734C46.5032 8.51762 47.5136 9.55896 48.6029 10.4879C49.3753 11.1428 49.8577 11.4541 50.6158 12.2566C51.8041 13.5046 52.5171 14.2587 52.5171 15.1605C52.5171 16.7574 50.3021 18.2228 48.4912 18.569C45.4729 19.1514 43.0845 16.7252 42.6757 16.2958C41.3392 15.8078 39.9133 15.7209 38.5381 16.0435C36.026 16.6849 34.5597 18.6951 33.2811 20.2115C30.9517 22.9423 28.295 25.2911 25.3885 27.1895C24.9059 27.5109 24.4837 27.9357 24.1455 28.4401L19.4137 35.4879L16.058 32.321L1.22339 27.6645" stroke="#292929" stroke-width="7" stroke-miterlimit="10"/>    <path d="M40.5035 43.1074C40.8838 44.7177 44.4843 47.5142 46.1312 50.0505C48.1276 53.1288 49.1115 54.2829 50.4851 55.1363C52.655 56.9855 53.7719 60.3484 52.9639 61.3843C52.1559 62.4203 49.7532 62.4257 47.8471 60.3752C45.9958 58.416 44.375 56.8245 43.1225 55.6382C41.2837 53.8404 39.3615 52.1543 37.364 50.5872C35.8929 49.452 34.6262 48.5851 33.7279 47.9973" stroke="#292929" stroke-width="7" stroke-miterlimit="10"/>    <path d="M41.6134 54.817L36.6915 59.4278C36.3937 59.67 36.0405 59.8107 35.674 59.8331C35.3075 59.8554 34.9431 59.7585 34.6239 59.5539C33.8301 58.9877 33.5378 57.6377 34.12 56.5239L38.1151 51.1777" stroke="#292929" stroke-width="7" stroke-miterlimit="10"/>    <path d="M42.1196 45.4503C43.3507 44.3983 45.4991 42.0526 45.3042 41.693C45.1093 41.3333 43.9852 41.5319 42.6187 42.1975C40.7646 42.9056 38.9837 43.8378 37.307 44.978C33.8625 47.3434 30.9141 50.5256 28.6658 54.3043C28.4953 54.5966 28.2727 54.8456 28.0123 55.0354C27.7519 55.2251 27.4593 55.3516 27.1532 55.4066C26.8471 55.4617 26.5342 55.4441 26.2345 55.3551C25.9347 55.266 25.6547 55.1074 25.4122 54.8894C25.3641 54.8477 25.318 54.8029 25.2744 54.7552C24.3499 53.7595 24.1384 52.0714 24.8276 50.6489C25.9477 47.0336 27.8157 43.7725 30.2764 41.1365C32.7371 38.5005 35.7194 36.5658 38.9754 35.4933C35.8074 36.5799 32.8938 38.4503 30.4465 40.9684C27.9991 43.4866 26.0796 46.5892 24.8276 50.0504C23.8984 50.7214 23.328 50.606 23.0951 50.5228C21.8711 50.0907 21.1344 47.4659 21.6953 43.9554C21.8958 42.477 22.2966 41.0423 22.8836 39.7015C23.7439 37.745 24.8276 36.4138 26.1419 35.0209C28.6904 32.3535 31.4781 29.9933 34.4599 27.9785C32.2069 29.9753 30.3627 31.5212 29.1482 32.5249C26.2963 34.8894 25.2197 35.6355 24.1146 37.3263C23.2296 38.6967 22.5843 40.2453 22.2134 41.8889C22.0655 42.5594 21.7416 43.1637 21.2841 43.6226C20.2052 44.6962 18.9313 45.0397 18.1328 44.5942C16.9231 43.9179 16.2577 41.1052 17.7953 38.5314L19.4185 35.4986" stroke="#292929" stroke-width="7" stroke-miterlimit="10"/>  </g>  <defs>    <clipPath id="clip0_1_817">      <rect width="90" height="66" fill="white"/>    </clipPath>  </defs></svg>