<svg width="63" height="63" viewBox="0 0 63 63" fill="none" xmlns="http://www.w3.org/2000/svg">  <path d="M35.9178 38.6108C35.9829 38.2014 36.0787 37.6289 36.2156 36.9488C36.6 35.0594 37.1292 33.2033 37.7986 31.3974C39.2635 27.4074 40.2167 26.8782 41.288 23.6532C42.2275 20.822 43.5829 16.7434 42.0735 12.6632C41.1939 10.283 39.3576 8.51001 35.6851 4.96579C33.8916 3.23097 32.2932 1.90384 31.1501 1C30.3783 1.64362 29.1889 2.63766 27.7274 3.85377C24.9653 6.14546 24.647 6.39354 24.0908 6.95042C23.2797 7.77272 21.44 9.81113 20.497 12.3283C19.3265 15.4649 19.946 18.3204 20.5193 20.8099C21.9465 26.9979 24.9208 28.5818 26.0982 35.129C26.3221 36.2831 26.4503 37.4541 26.4816 38.6299C27.125 38.5709 27.7993 38.524 28.5009 38.4963C29.1478 38.4703 29.7724 38.4616 30.3731 38.4651C30.3064 36.7094 30.2448 34.5097 30.2259 31.9682C30.202 28.4153 30.2653 24.7305 30.4399 20.8966C30.611 17.1442 30.8745 13.5306 31.21 10.0644C31.4952 13.4565 31.7188 16.9597 31.8808 20.5739C32.1546 26.8297 32.1888 32.7974 32.0519 38.4425C32.7365 38.4425 33.4381 38.4581 34.174 38.4946C34.7752 38.52 35.3565 38.5587 35.9178 38.6108Z" fill="white" stroke="white" stroke-miterlimit="10"/>  <path d="M1.85452 35.0213C-0.546776 30.8842 0.962611 25.7294 3.97452 22.8439C4.39132 22.4442 7.11679 19.9131 11.0635 20.016C16.8317 20.1644 20.3668 25.8376 21.9036 28.3007C22.9928 30.0463 24.8744 33.6143 25.25 38.8633C24.5193 38.9279 23.7509 39.0169 22.9448 39.1391C22.1386 39.2613 21.3496 39.4097 20.6224 39.5686C20.0049 36.1262 17.8317 33.5916 15.2966 33.232C14.9827 33.1866 13.3619 32.9911 11.9022 34.0193C10.2402 35.1888 9.48207 37.4581 9.98291 39.8182C9.48207 39.7798 4.35187 39.3085 1.85452 35.0213ZM9.53524 28.1663L10.2042 26.1082L8.14592 26.8361L6.3741 25.5723L6.43757 27.7316L4.67604 29.0076L6.77203 29.6151L7.45812 31.668L8.68964 29.8839H10.8748L9.53524 28.1663Z" fill="white" stroke="white" stroke-miterlimit="10"/>  <path d="M20.951 44.9675C20.9982 46.8936 19.9011 48.3854 18.1727 49.1626C15.8924 50.1881 13.7487 48.9463 13.5833 48.8483C14.1471 51.756 16.2164 53.8848 18.4309 54.0655C21.7324 54.3342 23.844 50.1509 24.2474 49.3501C24.8284 48.1704 25.1693 46.8868 25.25 45.5741C24.5343 45.5183 23.7748 45.4372 22.9798 45.3223C22.2591 45.2193 21.5822 45.0993 20.951 44.9675Z" fill="white" stroke="white" stroke-miterlimit="10"/>  <path d="M30.3746 45.9261C29.7003 45.9261 29.0052 45.9088 28.2895 45.8741C27.6519 45.8452 27.0332 45.8071 26.4336 45.7597C26.1596 48.9451 25.2031 50.2345 24.7741 51.1044C24.2168 52.2447 23.5409 53.3223 22.7578 54.3192C22.7527 54.3269 22.75 54.336 22.75 54.3452C22.75 54.3545 22.7527 54.3635 22.7578 54.3712C23.9346 56.5163 25.5427 58.3914 27.4796 59.8771C28.5912 60.7223 29.7977 61.4331 31.0743 61.9949C31.0807 61.9982 31.0878 62 31.095 62C31.1022 62 31.1093 61.9982 31.1156 61.9949C34.6952 60.5278 37.6364 57.8237 39.4097 54.3695C39.4143 54.3619 39.4167 54.3532 39.4167 54.3444C39.4167 54.3355 39.4143 54.3268 39.4097 54.3192C37.5902 51.7863 36.4007 48.8518 35.9408 45.7615C35.3721 45.8048 34.7862 45.8412 34.1848 45.8672C33.469 45.9007 32.7757 45.9186 32.1048 45.9209C32.1203 46.4859 32.1289 47.2259 32.1048 48.0907C32.0631 49.434 31.9527 50.7743 31.7739 52.1061C31.6412 53.1078 31.4758 54.0576 31.2897 54.9553C31.2867 54.9668 31.28 54.977 31.2707 54.9842C31.2613 54.9915 31.2498 54.9955 31.238 54.9955C31.2262 54.9955 31.2147 54.9915 31.2053 54.9842C31.196 54.977 31.1893 54.9668 31.1863 54.9553C30.9508 54.0935 30.7598 53.22 30.6142 52.3384C30.2624 50.22 30.1819 48.065 30.3746 45.9261Z" fill="white" stroke="white" stroke-miterlimit="10"/>  <path d="M31.0833 43.7792C36.8363 43.7792 41.5 42.9812 41.5 41.9968C41.5 41.0123 36.8363 40.2143 31.0833 40.2143C25.3304 40.2143 20.6667 41.0123 20.6667 41.9968C20.6667 42.9812 25.3304 43.7792 31.0833 43.7792Z" stroke="white" stroke-width="5" stroke-miterlimit="10"/>  <path d="M53.0163 39.8182C53.5171 37.5055 52.7591 35.2818 51.0971 34.134C49.6375 33.1265 48.0099 33.3198 47.7029 33.3626C45.1679 33.7166 42.9949 36.1987 42.3774 39.5719C41.6502 39.4179 40.875 39.2742 40.0551 39.1528C39.2353 39.0313 38.4806 38.9458 37.75 38.8825C38.1256 33.7389 40.0071 30.2391 41.0962 28.5303C42.6398 26.1184 46.1678 20.5591 51.9358 20.412C55.8806 20.3128 58.6076 22.7931 59.0244 23.1848C62.0362 26.0123 63.5472 31.0636 61.146 35.1159C58.6488 39.3187 53.5189 39.7805 53.0163 39.8182ZM52.1296 30.0766H54.3147L55.5461 31.8248L56.2322 29.8149L58.3281 29.2196L56.5666 27.9692L56.6301 25.8532L54.8549 27.0951L52.7968 26.3835L53.464 28.3985L52.1296 30.0766Z" fill="white" stroke="white" stroke-miterlimit="10"/>  <path d="M42.2026 44.9675C42.1536 46.9773 43.2899 48.5339 45.0801 49.3449C47.4418 50.4168 49.662 49.121 49.8333 49.017C49.2494 52.0528 47.1062 54.2741 44.8126 54.4609C41.3932 54.743 39.2062 50.378 38.7884 49.5423C38.1864 48.3109 37.8334 46.9709 37.75 45.6004C38.4912 45.544 39.2779 45.4594 40.1013 45.3395C40.8478 45.2355 41.5488 45.105 42.2026 44.9675Z" fill="white" stroke="white" stroke-miterlimit="10"/></svg>