<svg width="322" height="256" viewBox="0 0 322 256" fill="none" xmlns="http://www.w3.org/2000/svg">  <path d="M321.545 233.008C321.545 245.71 311.247 256.008 298.545 256.008H160.336L160.341 0.0428925H298.55C311.253 0.0428925 321.55 10.3403 321.55 23.0429L321.545 233.008Z" fill="#2876C8"/>  <path d="M321.545 233.008C321.545 245.71 311.247 256.008 298.545 256.008H160.336L160.341 0.0428925H298.55C311.253 0.0428925 321.55 10.3403 321.55 23.0429L321.545 233.008Z" fill="#2876C8"/>  <path d="M160.337 255.998H20C8.95431 255.998 0.000200689 247.044 0.000448252 235.998L0.00528859 20.0334C0.00553615 8.98775 8.96004 0.0334473 20.0057 0.0334473H160.343L160.337 255.998Z" fill="#184295" fill-opacity="0.5"/>  <path d="M160.337 255.998H20C8.95431 255.998 0.000200689 247.044 0.000448252 235.998L0.00528859 20.0334C0.00553615 8.98775 8.96004 0.0334473 20.0057 0.0334473H160.343L160.337 255.998Z" fill="#184295" fill-opacity="0.5"/>  <path d="M257.508 255.999H78L78.0057 0.0354834H257.514L257.508 255.999Z" fill="#184295" fill-opacity="0.5"/>  <path d="M257.508 255.999H78L78.0057 0.0354834H257.514L257.508 255.999Z" fill="#184295" fill-opacity="0.5"/></svg>