<svg width="46" height="68" viewBox="0 0 46 68" fill="none" xmlns="http://www.w3.org/2000/svg">  <g clip-path="url(#clip0_1_812)">    <path d="M29.4945 52.2526L32.8581 47.8271L27.0087 42.6227C21.9595 43.9745 17.4022 43.1297 15.6939 40.6964C14.9561 39.6488 14.4283 37.8492 15.3156 36.6411C16.0836 35.5867 17.6273 35.3771 22.7749 35.2098C25.0866 35.1355 28.0624 35.0713 31.549 35.0797L42.37 42.4977C42.7577 45.5992 42.4595 48.7384 41.4922 51.7372C40.7734 53.9254 39.4302 58.0467 35.6466 60.9666C29.6818 65.5627 19.538 65.7536 12.3946 61.6171C5.97579 57.8997 4.09346 51.9096 3.6224 50.1657V40.0205C3.62241 37.5 3 35 3.6224 34.5C5.13735 36.7064 7.38611 38.0988 10.0545 39.1081C11.7694 39.7388 13.6107 40.0493 15.465 40.0205" stroke="white" stroke-width="5" stroke-miterlimit="10"/>    <path d="M42.3644 42.4926L40.0242 37.4234L39.2921 10.227C39.4018 8.14019 37.5611 6.39131 35.3439 6.32203C33.0246 6.25106 30.9928 8.04049 31.1044 10.227C31.2539 23.1079 31.2936 32.1801 31.1044 32.1835C30.8112 31.8337 30.2266 6.84754 30.2266 6.84754C29.8994 4.66946 27.6916 3.20276 25.5463 3.46805C23.7605 3.68603 22.2622 5.075 22.0371 6.84754V32.1261L20.8679 10.7525C20.7204 8.31423 18.2951 6.57211 15.8963 6.84754C13.8154 7.08748 12.1127 8.7975 12.0938 10.8826C12.0938 17.6416 12.2376 24.8095 12.2376 31.5769" stroke="white" stroke-width="5" stroke-miterlimit="10"/>    <path d="M3.61294 34.4241C2.88082 31.8219 5.26826 30.0477 5.65986 29.8618C7.46841 29.0355 9.85206 30.2961 12.9716 31.9436C14.9035 32.985 16.7484 34.15 18.4919 35.4295" stroke="white" stroke-width="5" stroke-miterlimit="10"/>  </g>  <defs>    <clipPath id="clip0_1_812">      <rect width="46" height="68" fill="white"/>    </clipPath>  </defs></svg>