<svg width="88" height="73" viewBox="0 0 88 73" fill="none" xmlns="http://www.w3.org/2000/svg">  <g clip-path="url(#clip0_1_826)">    <path d="M33.5789 3.90015C37.3431 5.04111 41.2609 5.6288 45.2029 5.64383C49.2322 5.65488 53.2396 5.06689 57.0868 3.90015C58.4428 10.2184 60.5991 16.3481 63.506 22.1483C67.6866 30.4979 73.4568 37.9978 80.5096 44.2491H35.573C35.0486 41.3332 33.5352 32.5072 33.2316 23.7082C33.1258 20.6623 33.004 17.11 33.2523 13.2663C33.2983 12.5625 33.4248 10.7785 33.5053 8.28848C33.5674 6.44394 33.5789 4.92215 33.5789 3.90015ZM33.5789 3.90015C31.4561 10.5109 28.6664 16.9005 25.2508 22.9753C20.8927 30.7286 15.4957 37.8826 9.20166 44.2491H26.2053C29.0833 37.5994 31.1505 30.6436 32.3646 23.5244C32.9005 20.3867 33.7192 7.00425 33.5789 3.90015Z" stroke="#292929" stroke-width="5" stroke-miterlimit="10"/>    <path d="M33.5789 3.90015C35.3164 11.8901 38.3316 19.5643 42.5143 26.6419C46.3988 33.2163 51.3159 39.1573 57.0868 44.2491" stroke="#292929" stroke-width="5" stroke-miterlimit="10"/>    <path d="M14.8826 25.5908C14.4548 29.7035 15.5036 29.9814 17.1825 33.025C18.3463 35.2438 18.4452 36.3218 17.0721 38.2201C16.4626 40.4726 21.5686 46.1339 18.0496 47.5549C18.0082 47.4025 17.907 46.3087 17.8541 45.986C18.1462 46.8825 17.7138 48.2855 18.4291 48.9691C19.4848 49.3703 20.8832 48.169 21.3248 47.3868C21.7204 45.3697 19.3675 44.0608 19.3491 40.1879C22.1895 43.9151 27.4381 51.2439 23.3763 53.2476C26.9781 55.881 24.8276 59.7965 22.0469 61.3407C18.9144 63.3578 13.4773 63.5505 10.2964 62.6182C1.14721 58.0438 6.03922 47.1044 8.70028 44.9416C7.5963 49.6101 6.77061 53.3283 9.09357 51.5868C7.3663 52.7075 7.4238 50.8562 7.84009 48.8637C12.4561 48.5813 5.83223 39.334 11.9616 35.2908C10.8116 36.4809 10.5149 40.6586 11.6902 42.1468C11.5154 41.9226 11.336 40.7057 11.8604 40.1947C12.2054 40.5757 12.5688 41.7321 12.5067 42.2252C12.0467 39.6971 12.4492 38.3748 13.0978 36.5302C13.5578 34.5826 12.7804 33.8296 13.0426 32.1531C13.2174 31.0459 13.6038 31.0751 14.1926 29.5174C14.6515 28.2567 14.8849 26.9285 14.8826 25.5908Z" fill="#9FAECA" stroke="#292929" stroke-width="2" stroke-miterlimit="10"/>    <path d="M7.36169 54.8164C7.16389 55.6143 7.86308 58.1021 8.90266 58.9044C8.50477 57.8959 8.44267 55.556 8.79456 54.5273C8.84056 55.3117 9.56965 56.9927 10.3102 57.6897C9.01306 54.5901 10.5724 48.6194 12.6654 46.6942C11.9087 48.5746 11.4142 52.3376 11.7178 54.5004C11.7568 53.4556 12.0242 52.431 12.5021 51.4949C12.187 52.6469 12.7436 55.6233 13.5302 56.6632C12.6539 54.3794 12.8678 48.0076 14.7285 44.9774C14.1351 48.4962 14.2041 52.6402 15.8301 54.7626C15.7726 54.3749 16.7501 52.1807 16.7501 52.1807C17.1756 51.226 16.9433 48.1981 16.941 48.4872C17.9484 50.6074 17.8127 53.0414 18.2382 55.7398C18.5536 54.7322 18.6191 53.666 18.4291 52.629C19.0824 54.0234 19.5812 55.4817 19.9172 56.9792C20.8142 56.2486 21.4006 53.8617 21.1615 53.1288C22.1734 54.7178 21.7433 58.8955 20.9177 59.9063L21.9733 58.1648C21.7295 61.3922 17.6425 62.9185 15.5196 62.7885C10.1101 63.5953 6.02541 59.9197 7.36169 54.8164Z" fill="#9FAECA" stroke="#292929" stroke-miterlimit="10"/>    <path d="M3.00555 66.4014C3.96204 66.4014 4.73742 65.5374 4.73742 64.4717C4.73742 63.406 3.96204 62.542 3.00555 62.542C2.04907 62.542 1.27368 63.406 1.27368 64.4717C1.27368 65.5374 2.04907 66.4014 3.00555 66.4014Z" stroke="#292929" stroke-width="2" stroke-miterlimit="10"/>    <path d="M19.6596 69.3733C20.8117 69.3733 21.7456 68.5966 21.7456 67.6386C21.7456 66.6805 20.8117 65.9039 19.6596 65.9039C18.5074 65.9039 17.5735 66.6805 17.5735 67.6386C17.5735 68.5966 18.5074 69.3733 19.6596 69.3733Z" stroke="#292929" stroke-width="2" stroke-miterlimit="10"/>    <path d="M10.4551 69.0214C11.4116 69.0214 12.187 68.2177 12.187 67.2262C12.187 66.2347 11.4116 65.431 10.4551 65.431C9.49865 65.431 8.72327 66.2347 8.72327 67.2262C8.72327 68.2177 9.49865 69.0214 10.4551 69.0214Z" stroke="#292929" stroke-width="2" stroke-miterlimit="10"/>    <path d="M28.3216 64.171C28.5655 63.33 28.2072 62.4952 27.5215 62.3064C26.8358 62.1176 26.0821 62.6462 25.8383 63.4871C25.5944 64.3281 25.9526 65.1629 26.6383 65.3517C27.3241 65.5406 28.0777 65.0119 28.3216 64.171Z" stroke="#292929" stroke-width="2" stroke-miterlimit="10"/>    <path d="M3.00555 64.4717C2.91126 65.2539 2.77556 65.7111 2.62606 65.7223C2.32017 65.7402 1.66238 64.1534 2.19367 63.7433C2.50876 63.5035 3.25855 63.6738 3.89794 64.2722" stroke="#292929" stroke-miterlimit="10"/>    <path d="M9.58113 66.5381C10.0041 66.4214 10.4563 66.4588 10.853 66.6435C11.0324 66.7331 11.4901 66.9572 11.543 67.3831C11.6189 67.8694 11.1428 68.3984 10.5977 68.4902C10.408 68.5254 10.2121 68.5096 10.031 68.4445C9.84984 68.3793 9.69035 68.2673 9.56963 68.1204C9.38103 67.8761 9.25914 67.4481 9.46153 67.1971C9.74213 66.8429 10.5379 66.9617 10.7863 67.3562C10.8401 67.433 10.8711 67.5228 10.876 67.6157C10.8809 67.7087 10.8594 67.8011 10.8139 67.8829C10.6506 68.107 10.1768 68.107 9.94682 67.8582C9.8894 67.7885 9.84765 67.7077 9.82427 67.6212C9.8009 67.5348 9.79642 67.4445 9.81112 67.3562" stroke="#292929" stroke-miterlimit="10"/>    <path d="M19.7355 68.6225C20.2385 68.6225 20.6462 68.2251 20.6462 67.7349C20.6462 67.2448 20.2385 66.8474 19.7355 66.8474C19.2324 66.8474 18.8247 67.2448 18.8247 67.7349C18.8247 68.2251 19.2324 68.6225 19.7355 68.6225Z" stroke="#292929" stroke-miterlimit="10"/>    <path d="M19.7355 68.2325C20.0175 68.2325 20.2461 68.0097 20.2461 67.7349C20.2461 67.4601 20.0175 67.2374 19.7355 67.2374C19.4535 67.2374 19.2249 67.4601 19.2249 67.7349C19.2249 68.0097 19.4535 68.2325 19.7355 68.2325Z" stroke="#292929" stroke-miterlimit="10"/>    <path d="M19.8883 68.8527C20.712 68.7475 21.3083 68.1318 21.2203 67.4777C21.1323 66.8235 20.3932 66.3786 19.5695 66.4838C18.7459 66.5891 18.1495 67.2047 18.2375 67.8588C18.3255 68.513 19.0646 68.9579 19.8883 68.8527Z" stroke="#292929" stroke-miterlimit="10"/>    <path d="M6.50839 59.2765H3.83814C3.59038 59.276 3.34645 59.336 3.12866 59.4511C2.91088 59.5663 2.72621 59.7328 2.59156 59.9354C2.37612 60.2541 2.24859 60.6216 2.22127 61.0023C2.1878 61.5532 2.35565 62.0979 2.69506 62.5397L8.61056 61.6433L2.43746 62.6877C1.55428 63.2883 1.07589 64.2319 1.27368 64.9805C1.54968 66.0293 3.19185 66.8676 4.89612 66.1683L12.0536 63.109L9.33044 65.5856C9.13133 65.761 8.96983 65.9731 8.85526 66.2096C8.74069 66.4462 8.67531 66.7025 8.66291 66.9638C8.65051 67.225 8.69132 67.4861 8.783 67.732C8.87468 67.9778 9.0154 68.2035 9.19705 68.3961C9.27535 68.4778 9.36077 68.5528 9.45234 68.6202C10.3516 69.2612 11.7293 69.1066 12.5412 68.172L15.791 65.5071L17.6586 68.172C17.7919 68.4295 17.9765 68.6587 18.2016 68.8461C18.4267 69.0334 18.6879 69.1752 18.9698 69.2633C19.2517 69.3513 19.5488 69.3838 19.8437 69.3588C20.1387 69.3338 20.4255 69.2519 20.6876 69.1178C20.9811 68.956 21.2321 68.7302 21.4208 68.458C21.6096 68.1857 21.731 67.8746 21.7755 67.5489C21.8112 67.2562 21.7761 66.9595 21.6731 66.6824C21.57 66.4054 21.4019 66.1556 21.1821 65.9531L18.3647 63.3018L26.0834 65.4108C26.4053 65.4728 26.738 65.4558 27.0515 65.3612C27.365 65.2667 27.6495 65.0977 27.8792 64.8693C28.109 64.641 28.2768 64.3606 28.3676 64.0533C28.4584 63.746 28.4694 63.4215 28.3994 63.109C28.3225 62.8058 28.1545 62.5318 27.9169 62.3222C27.6792 62.1125 27.3827 61.9768 27.0654 61.9324L22.2746 61.204L27.0861 61.7643C27.4334 61.5555 27.6996 61.2401 27.8428 60.8678C27.9358 60.5965 27.9634 60.308 27.9235 60.0247C27.8836 59.7414 27.7773 59.4708 27.6128 59.2339C27.541 59.1276 27.4429 59.0405 27.3276 58.9806C27.2123 58.9207 27.0834 58.8899 26.9527 58.891H24.6528" stroke="#292929" stroke-width="2" stroke-miterlimit="10"/>    <path d="M26.3686 63.7545C26.4721 63.2726 26.9068 63.0194 27.2517 63.174C27.5967 63.3286 27.7577 63.8822 27.5898 64.2274C27.3598 64.698 26.6469 64.5927 26.5733 64.3865C26.5319 64.2744 26.6653 64.1019 26.8033 63.9607" stroke="#292929" stroke-miterlimit="10"/>    <path d="M57.6089 61.2936C57.6209 61.1579 57.6209 61.0215 57.6089 60.8857C57.487 59.8211 56.6177 59.3012 56.0381 58.528C55.5336 57.8226 55.2471 56.9912 55.2124 56.1321C55.4889 56.8208 55.8772 57.4617 56.3624 58.0304C56.6787 58.3991 57.035 58.7335 57.4249 59.0278C57.288 58.2668 57.1068 57.514 56.8821 56.7731C56.6866 56.1298 56.4705 55.5426 56.252 55.0115C56.5811 55.2331 56.8808 55.4936 57.1443 55.7869C58.4783 57.2773 58.499 59.2227 58.5381 59.216C58.5772 59.2093 58.4852 57.7189 57.8366 55.3678C57.5238 54.2472 57.1972 53.3328 56.9603 52.7187C57.5977 53.3824 58.1155 54.1462 58.4921 54.9778C59.5202 57.2549 59.488 59.8324 59.4995 59.5544C59.511 59.2765 59.6168 57.4208 61.0796 56.3226C61.5167 55.9925 62.0245 55.7627 62.5653 55.6502C62.0406 56.1431 61.5955 56.7106 61.2452 57.3334C60.8096 58.1063 60.522 58.9501 60.3965 59.8234C60.4442 59.4676 60.6017 59.1344 60.8482 58.8679C61.0946 58.6013 61.4183 58.414 61.7765 58.3307C62.0971 58.2632 62.4308 58.2852 62.7392 58.3943C63.0476 58.5033 63.3182 58.6949 63.5198 58.9471C62.9453 58.8862 62.3649 58.9848 61.8455 59.2317C60.6035 59.8279 60.2148 61.0583 60.1481 61.2802" stroke="#292929" stroke-miterlimit="10"/>    <path d="M39.9728 56.3069C39.7198 55.8385 39.4944 55.2513 39.7428 54.9039C39.8854 54.7112 40.1016 54.691 40.2925 54.6081C40.695 54.4288 41.1251 53.9088 41.2654 52.4318C40.9704 52.8839 40.6154 53.2962 40.2097 53.6578C40.0065 53.8137 39.8165 53.9853 39.6416 54.171C39.3094 54.631 39.1651 55.1952 39.2368 55.7533C39.0515 55.0634 39.0032 54.3453 39.0942 53.6376C39.19 52.9059 39.4314 52.1994 39.8049 51.5577C39.4254 51.9845 39.1045 52.4577 38.8504 52.9652C38.4202 53.8355 38.1917 54.7874 38.1811 55.7533C38.2897 54.6455 38.1322 53.5283 37.7212 52.4901C37.5927 52.1682 37.439 51.8565 37.2612 51.5577C37.6752 53.1064 37.5694 53.7788 37.3624 54.0926C37.2494 54.255 37.1669 54.4356 37.1186 54.626C37.052 54.9108 37.0591 55.2073 37.1393 55.4889" stroke="#292929" stroke-miterlimit="10"/>    <path d="M42.4292 71.9484C42.6799 71.48 42.9053 70.8928 42.6592 70.5454C42.5189 70.3527 42.3027 70.3325 42.1095 70.2496C41.707 70.0703 41.2792 69.5503 41.1366 68.0733C41.4323 68.525 41.7872 68.9371 42.1923 69.2993C42.396 69.4546 42.5861 69.6263 42.7604 69.8125C43.0942 70.2744 43.2386 70.8412 43.1652 71.4016C43.5459 69.9845 43.342 68.4784 42.5971 67.206C43.6346 68.371 44.2105 69.8591 44.2208 71.4016C44.1123 70.2938 44.2698 69.1766 44.6808 68.1383C44.8102 67.8169 44.9639 67.5052 45.1408 67.206C44.7268 68.7547 44.8326 69.4271 45.0396 69.7408C45.1525 69.9032 45.2351 70.0838 45.2834 70.2742C45.348 70.5555 45.3409 70.8479 45.2627 71.1259" stroke="#292929" stroke-miterlimit="10"/>    <path d="M12.716 17.2534C17.393 17.2534 21.1845 13.6651 21.1845 9.23877C21.1845 4.8124 17.393 1.22412 12.716 1.22412C8.03901 1.22412 4.24756 4.8124 4.24756 9.23877C4.24756 13.6651 8.03901 17.2534 12.716 17.2534Z" stroke="#292929" stroke-width="2" stroke-miterlimit="10"/>    <path d="M4.65235 4.21393C3.8871 5.18328 3.33441 6.29552 3.02858 7.48165C2.60838 9.15531 2.68333 10.9107 3.24477 12.5446" stroke="#292929" stroke-width="2" stroke-miterlimit="10"/>    <path d="M1.67618 9.29256C1.57453 7.57619 1.97321 5.8668 2.82616 4.36185C3.44236 3.29568 4.27501 2.36304 5.27332 1.62082" stroke="#292929" stroke-width="2" stroke-miterlimit="10"/>    <path d="M21.5271 3.79034C22.3104 5.48073 22.7142 7.3146 22.7116 9.1693C22.683 11.7423 21.8467 14.2451 20.3151 16.3412" stroke="#292929" stroke-width="2" stroke-miterlimit="10"/>  </g>  <defs>    <clipPath id="clip0_1_826">      <rect width="88" height="73" fill="white"/>    </clipPath>  </defs></svg>